<?xml version="1.0" standalone="no"?>
<!DOCTYPE svg PUBLIC "-//W3C//DTD SVG 20010904//EN"
 "http://www.w3.org/TR/2001/REC-SVG-20010904/DTD/svg10.dtd">
<svg version="1.0" xmlns="http://www.w3.org/2000/svg"
 width="90.000000pt" height="90.000000pt" viewBox="0 0 90.000000 90.000000"
 preserveAspectRatio="xMidYMid meet">
<metadata>
Created by potrace 1.13, written by Peter Selinger 2001-2015
</metadata>
<g transform="translate(0.000000,90.000000) scale(0.100000,-0.100000)"
fill="#000000" stroke="none">
<path d="M1 738 c0 -90 3 -157 6 -150 2 6 13 12 23 12 27 0 21 -37 -7 -45
l-23 -5 0 -275 0 -275 450 0 450 0 0 255 0 255 -32 1 c-55 2 -61 4 -65 17 -3
8 10 12 46 12 l51 0 0 180 0 180 -81 0 -82 0 6 -49 c6 -54 0 -91 -15 -91 -6 0
-8 13 -4 31 4 23 3 30 -7 26 -10 -3 -12 3 -9 23 2 15 -1 31 -7 34 -6 4 -11 2
-11 -3 0 -6 -4 -11 -10 -11 -5 0 -10 9 -10 20 0 19 -6 20 -226 20 l-225 -1 6
-22 5 -22 -11 23 c-11 20 -19 22 -87 22 -69 0 -74 -1 -69 -20 3 -11 1 -20 -4
-20 -5 0 -9 9 -9 20 0 15 -7 20 -25 20 l-25 0 1 -162z m201 -40 c3 -26 2 -45
-3 -42 -5 3 -9 -1 -9 -8 0 -10 23 -13 95 -13 52 0 95 3 95 7 0 12 62 -3 100
-24 34 -18 31 -19 -17 -4 -14 4 -23 3 -23 -3 0 -5 -10 -11 -22 -13 -26 -4 -37
-27 -11 -26 26 2 115 -40 109 -51 -4 -5 -1 -11 5 -13 7 -2 10 -10 8 -16 -3 -8
-18 1 -42 23 -36 34 -47 32 -27 -6 9 -15 7 -19 -5 -19 -9 0 -14 4 -11 9 9 14
-12 61 -26 61 -9 0 -9 -3 2 -11 12 -8 10 -9 -7 -4 -29 8 -39 -11 -12 -25 11
-7 18 -14 16 -17 -3 -2 -14 0 -25 6 -24 13 -43 63 -31 82 5 9 1 17 -14 26 -19
10 -26 8 -44 -9 -13 -12 -23 -28 -23 -35 0 -10 -6 -10 -26 3 -24 16 -25 16
-30 -3 -3 -11 -13 -20 -22 -19 -35 3 -92 31 -92 44 0 9 -7 13 -20 9 -23 -6
-24 -6 -8 28 11 25 28 34 28 15 0 -5 11 -12 25 -16 14 -3 25 -10 25 -14 0 -12
29 -40 41 -40 5 0 9 9 9 20 0 11 -6 20 -13 20 -7 0 -21 15 -29 34 -15 31 -15
35 3 66 11 18 21 31 23 29 2 -2 6 -25 8 -51z m195 -236 c10 -13 35 -28 54 -35
48 -17 245 -15 286 2 32 13 55 52 35 59 -12 4 -3 42 10 42 6 0 8 -7 4 -15 -3
-8 -2 -15 3 -15 16 0 20 -41 5 -58 -7 -9 -19 -25 -26 -34 -9 -12 -41 -21 -108
-31 -125 -17 -175 -14 -234 17 -27 15 -57 26 -66 26 -10 0 -24 7 -31 17 -13
15 -11 16 16 10 28 -7 28 -6 -7 13 -36 20 -54 48 -23 36 10 -3 15 1 15 13 0
11 3 27 7 37 5 14 10 10 24 -22 10 -21 26 -49 36 -62z"/>
</g>
</svg>
